<svg xmlns="http://www.w3.org/2000/svg" xmlns:xlink="http://www.w3.org/1999/xlink" width="500" zoomAndPan="magnify" viewBox="0 0 375 374.999991" height="500" preserveAspectRatio="xMidYMid meet" version="1.0"><defs><clipPath id="id1"><path d="M 23 23 L 352 23 L 352 352 L 23 352 Z M 23 23 " clip-rule="nonzero"/></clipPath><clipPath id="id2"><path d="M 418.105469 162.664062 L 212.496094 417.898438 L -42.738281 212.285156 L 162.875 -42.949219 Z M 418.105469 162.664062 " clip-rule="nonzero"/></clipPath><clipPath id="id3"><path d="M 418.105469 162.664062 L 212.496094 417.898438 L -42.738281 212.285156 L 162.875 -42.949219 Z M 418.105469 162.664062 " clip-rule="nonzero"/></clipPath><clipPath id="id4"><path d="M 84.878906 315.089844 C 82.789062 313.410156 80.742188 311.675781 78.742188 309.894531 C 76.738281 308.109375 74.777344 306.277344 72.863281 304.398438 C 70.953125 302.519531 69.085938 300.59375 67.265625 298.625 C 65.445312 296.652344 63.675781 294.640625 61.957031 292.582031 C 60.238281 290.523438 58.566406 288.425781 56.953125 286.285156 C 55.335938 284.148438 53.769531 281.96875 52.261719 279.753906 C 50.75 277.535156 49.296875 275.285156 47.894531 272.996094 C 46.496094 270.707031 45.152344 268.386719 43.867188 266.035156 C 42.582031 263.679688 41.355469 261.296875 40.1875 258.882812 C 39.015625 256.46875 37.910156 254.027344 36.859375 251.558594 C 35.8125 249.089844 34.824219 246.597656 33.898438 244.082031 C 32.96875 241.566406 32.105469 239.027344 31.304688 236.46875 C 30.503906 233.910156 29.765625 231.332031 29.089844 228.734375 C 28.414062 226.140625 27.800781 223.527344 27.253906 220.902344 C 26.707031 218.277344 26.226562 215.640625 25.808594 212.992188 C 25.390625 210.34375 25.039062 207.683594 24.75 205.019531 C 24.464844 202.351562 24.242188 199.679688 24.085938 197.003906 C 23.929688 194.324219 23.839844 191.644531 23.816406 188.964844 C 23.792969 186.28125 23.832031 183.601562 23.941406 180.921875 C 24.046875 178.242188 24.222656 175.566406 24.460938 172.894531 C 24.699219 170.222656 25.003906 167.558594 25.371094 164.902344 C 25.742188 162.246094 26.175781 159.601562 26.675781 156.964844 C 27.175781 154.332031 27.738281 151.710938 28.367188 149.101562 C 28.992188 146.496094 29.683594 143.902344 30.441406 141.332031 C 31.195312 138.757812 32.015625 136.203125 32.894531 133.671875 C 33.773438 131.136719 34.71875 128.628906 35.722656 126.140625 C 36.722656 123.652344 37.789062 121.191406 38.914062 118.757812 C 40.039062 116.324219 41.222656 113.917969 42.464844 111.539062 C 43.707031 109.164062 45.007812 106.820312 46.363281 104.507812 C 47.722656 102.195312 49.136719 99.914062 50.605469 97.671875 C 52.078125 95.429688 53.601562 93.222656 55.179688 91.054688 C 56.757812 88.886719 58.386719 86.757812 60.070312 84.667969 C 61.75 82.578125 63.484375 80.535156 65.265625 78.53125 C 67.050781 76.527344 68.882812 74.570312 70.761719 72.65625 C 72.640625 70.742188 74.5625 68.875 76.535156 67.054688 C 78.503906 65.238281 80.519531 63.46875 82.578125 61.746094 C 84.636719 60.027344 86.734375 58.359375 88.875 56.742188 C 91.011719 55.125 93.191406 53.558594 95.40625 52.050781 C 97.625 50.539062 99.875 49.085938 102.164062 47.6875 C 104.449219 46.285156 106.773438 44.941406 109.125 43.65625 C 111.480469 42.371094 113.863281 41.144531 116.277344 39.976562 C 118.691406 38.808594 121.132812 37.699219 123.601562 36.648438 C 126.070312 35.601562 128.5625 34.613281 131.078125 33.6875 C 133.59375 32.761719 136.132812 31.898438 138.691406 31.09375 C 141.25 30.292969 143.828125 29.554688 146.425781 28.878906 C 149.019531 28.203125 151.628906 27.59375 154.257812 27.046875 C 156.882812 26.5 159.519531 26.015625 162.167969 25.597656 C 164.816406 25.179688 167.476562 24.828125 170.140625 24.542969 C 172.808594 24.253906 175.480469 24.03125 178.15625 23.878906 C 180.835938 23.722656 183.515625 23.632812 186.195312 23.605469 C 188.878906 23.582031 191.558594 23.625 194.238281 23.730469 C 196.917969 23.839844 199.59375 24.011719 202.265625 24.25 C 204.9375 24.488281 207.601562 24.792969 210.257812 25.160156 C 212.914062 25.53125 215.558594 25.964844 218.195312 26.464844 C 220.828125 26.964844 223.449219 27.527344 226.058594 28.15625 C 228.664062 28.785156 231.253906 29.476562 233.828125 30.230469 C 236.402344 30.984375 238.957031 31.804688 241.488281 32.683594 C 244.023438 33.566406 246.53125 34.507812 249.019531 35.511719 C 251.507812 36.515625 253.96875 37.578125 256.402344 38.703125 C 258.835938 39.828125 261.242188 41.011719 263.621094 42.253906 C 265.996094 43.496094 268.339844 44.796875 270.652344 46.15625 C 272.964844 47.511719 275.246094 48.925781 277.488281 50.398438 C 279.730469 51.867188 281.9375 53.390625 284.105469 54.96875 C 286.273438 56.546875 288.402344 58.175781 290.492188 59.859375 C 292.578125 61.542969 294.625 63.273438 296.628906 65.058594 C 298.632812 66.839844 300.589844 68.671875 302.503906 70.550781 C 304.417969 72.429688 306.285156 74.355469 308.105469 76.324219 C 309.921875 78.296875 311.691406 80.308594 313.414062 82.367188 C 315.132812 84.425781 316.800781 86.523438 318.417969 88.664062 C 320.035156 90.804688 321.597656 92.980469 323.109375 95.195312 C 324.621094 97.414062 326.074219 99.664062 327.472656 101.953125 C 328.875 104.242188 330.214844 106.5625 331.503906 108.914062 C 332.789062 111.269531 334.015625 113.652344 335.183594 116.066406 C 336.351562 118.480469 337.460938 120.921875 338.507812 123.390625 C 339.558594 125.859375 340.546875 128.351562 341.472656 130.867188 C 342.398438 133.386719 343.261719 135.921875 344.066406 138.480469 C 344.867188 141.042969 345.605469 143.617188 346.28125 146.214844 C 346.957031 148.808594 347.566406 151.421875 348.113281 154.046875 C 348.660156 156.671875 349.144531 159.308594 349.5625 161.957031 C 349.980469 164.609375 350.332031 167.265625 350.617188 169.933594 C 350.90625 172.597656 351.125 175.269531 351.28125 177.949219 C 351.4375 180.625 351.527344 183.304688 351.554688 185.988281 C 351.578125 188.667969 351.535156 191.347656 351.429688 194.027344 C 351.320312 196.707031 351.148438 199.382812 350.910156 202.054688 C 350.671875 204.726562 350.367188 207.390625 349.996094 210.046875 C 349.628906 212.703125 349.195312 215.347656 348.695312 217.984375 C 348.195312 220.621094 347.632812 223.242188 347.003906 225.847656 C 346.375 228.457031 345.683594 231.046875 344.929688 233.621094 C 344.171875 236.191406 343.355469 238.746094 342.476562 241.277344 C 341.59375 243.8125 340.652344 246.324219 339.648438 248.808594 C 338.644531 251.296875 337.582031 253.757812 336.457031 256.191406 C 335.332031 258.628906 334.148438 261.03125 332.90625 263.410156 C 331.664062 265.785156 330.363281 268.128906 329.003906 270.445312 C 327.648438 272.757812 326.234375 275.035156 324.761719 277.277344 C 323.292969 279.519531 321.769531 281.726562 320.191406 283.894531 C 318.613281 286.0625 316.984375 288.191406 315.300781 290.28125 C 313.617188 292.371094 311.886719 294.414062 310.101562 296.417969 C 308.320312 298.421875 306.488281 300.382812 304.609375 302.292969 C 302.730469 304.207031 300.804688 306.074219 298.835938 307.894531 C 296.863281 309.710938 294.851562 311.484375 292.792969 313.203125 C 290.734375 314.921875 288.636719 316.589844 286.496094 318.207031 C 284.355469 319.824219 282.179688 321.390625 279.960938 322.898438 C 277.746094 324.410156 275.496094 325.863281 273.207031 327.265625 C 270.917969 328.664062 268.597656 330.007812 266.246094 331.292969 C 263.890625 332.578125 261.507812 333.804688 259.09375 334.972656 C 256.679688 336.140625 254.238281 337.25 251.769531 338.300781 C 249.300781 339.347656 246.808594 340.335938 244.292969 341.261719 C 241.773438 342.1875 239.238281 343.054688 236.675781 343.855469 C 234.117188 344.65625 231.539062 345.394531 228.945312 346.070312 C 226.351562 346.746094 223.738281 347.355469 221.113281 347.902344 C 218.488281 348.453125 215.851562 348.933594 213.203125 349.351562 C 210.550781 349.769531 207.894531 350.121094 205.226562 350.40625 C 202.5625 350.695312 199.890625 350.917969 197.210938 351.074219 C 194.535156 351.230469 191.855469 351.320312 189.171875 351.34375 C 186.492188 351.367188 183.808594 351.324219 181.128906 351.21875 C 178.449219 351.113281 175.773438 350.9375 173.105469 350.699219 C 170.433594 350.460938 167.769531 350.15625 165.113281 349.789062 C 162.457031 349.417969 159.808594 348.984375 157.175781 348.484375 C 154.539062 347.984375 151.917969 347.421875 149.3125 346.792969 C 146.703125 346.164062 144.113281 345.472656 141.539062 344.71875 C 138.96875 343.964844 136.414062 343.144531 133.878906 342.265625 C 131.347656 341.386719 128.835938 340.441406 126.351562 339.4375 C 123.863281 338.433594 121.402344 337.371094 118.96875 336.246094 C 116.53125 335.121094 114.128906 333.9375 111.75 332.695312 C 109.375 331.453125 107.027344 330.152344 104.714844 328.792969 C 102.402344 327.4375 100.125 326.023438 97.882812 324.554688 C 95.636719 323.082031 93.433594 321.558594 91.265625 319.980469 C 89.09375 318.402344 86.96875 316.773438 84.878906 315.089844 Z M 84.878906 315.089844 " clip-rule="nonzero"/></clipPath><linearGradient x1="1744.865911" gradientTransform="matrix(-1.989338, -1.602595, 1.602595, -1.989338, 3445.901022, 3615.415393)" y1="244.834" x2="1925.286205" gradientUnits="userSpaceOnUse" y2="244.834" id="id5"><stop stop-opacity="1" stop-color="rgb(76.899719%, 0%, 100%)" offset="0"/><stop stop-opacity="1" stop-color="rgb(76.899719%, 0%, 100%)" offset="0.125"/><stop stop-opacity="1" stop-color="rgb(76.899719%, 0%, 100%)" offset="0.140625"/><stop stop-opacity="1" stop-color="rgb(76.802063%, 0.14801%, 100%)" offset="0.148438"/><stop stop-opacity="1" stop-color="rgb(76.513672%, 0.588989%, 100%)" offset="0.152344"/><stop stop-opacity="1" stop-color="rgb(76.324463%, 0.880432%, 100%)" offset="0.15625"/><stop stop-opacity="1" stop-color="rgb(76.133728%, 1.171875%, 100%)" offset="0.160156"/><stop stop-opacity="1" stop-color="rgb(75.942993%, 1.463318%, 100%)" offset="0.164062"/><stop stop-opacity="1" stop-color="rgb(75.752258%, 1.754761%, 100%)" offset="0.167969"/><stop stop-opacity="1" stop-color="rgb(75.563049%, 2.046204%, 100%)" offset="0.171875"/><stop stop-opacity="1" stop-color="rgb(75.372314%, 2.337646%, 100%)" offset="0.175781"/><stop stop-opacity="1" stop-color="rgb(75.18158%, 2.629089%, 100%)" offset="0.179687"/><stop stop-opacity="1" stop-color="rgb(74.990845%, 2.920532%, 100%)" offset="0.183594"/><stop stop-opacity="1" stop-color="rgb(74.801636%, 3.213501%, 100%)" offset="0.1875"/><stop stop-opacity="1" stop-color="rgb(74.610901%, 3.504944%, 100%)" offset="0.191406"/><stop stop-opacity="1" stop-color="rgb(74.420166%, 3.796387%, 100%)" offset="0.195312"/><stop stop-opacity="1" stop-color="rgb(74.229431%, 4.08783%, 100%)" offset="0.199219"/><stop stop-opacity="1" stop-color="rgb(74.040222%, 4.379272%, 100%)" offset="0.203125"/><stop stop-opacity="1" stop-color="rgb(73.849487%, 4.670715%, 100%)" offset="0.207031"/><stop stop-opacity="1" stop-color="rgb(73.660278%, 4.962158%, 100%)" offset="0.210937"/><stop stop-opacity="1" stop-color="rgb(73.469543%, 5.253601%, 100%)" offset="0.214844"/><stop stop-opacity="1" stop-color="rgb(73.278809%, 5.545044%, 100%)" offset="0.21875"/><stop stop-opacity="1" stop-color="rgb(73.088074%, 5.836487%, 100%)" offset="0.222656"/><stop stop-opacity="1" stop-color="rgb(72.898865%, 6.12793%, 100%)" offset="0.226562"/><stop stop-opacity="1" stop-color="rgb(72.70813%, 6.419373%, 100%)" offset="0.230469"/><stop stop-opacity="1" stop-color="rgb(72.517395%, 6.710815%, 100%)" offset="0.234375"/><stop stop-opacity="1" stop-color="rgb(72.32666%, 7.002258%, 100%)" offset="0.238281"/><stop stop-opacity="1" stop-color="rgb(72.137451%, 7.293701%, 100%)" offset="0.242187"/><stop stop-opacity="1" stop-color="rgb(71.946716%, 7.585144%, 100%)" offset="0.246094"/><stop stop-opacity="1" stop-color="rgb(71.755981%, 7.876587%, 100%)" offset="0.25"/><stop stop-opacity="1" stop-color="rgb(71.565247%, 8.16803%, 100%)" offset="0.253906"/><stop stop-opacity="1" stop-color="rgb(71.376038%, 8.459473%, 100%)" offset="0.257812"/><stop stop-opacity="1" stop-color="rgb(71.185303%, 8.750916%, 100%)" offset="0.261719"/><stop stop-opacity="1" stop-color="rgb(70.994568%, 9.043884%, 100%)" offset="0.265625"/><stop stop-opacity="1" stop-color="rgb(70.803833%, 9.335327%, 100%)" offset="0.269531"/><stop stop-opacity="1" stop-color="rgb(70.614624%, 9.62677%, 100%)" offset="0.273438"/><stop stop-opacity="1" stop-color="rgb(70.423889%, 9.918213%, 100%)" offset="0.277344"/><stop stop-opacity="1" stop-color="rgb(70.233154%, 10.209656%, 100%)" offset="0.28125"/><stop stop-opacity="1" stop-color="rgb(70.042419%, 10.501099%, 100%)" offset="0.285156"/><stop stop-opacity="1" stop-color="rgb(69.85321%, 10.792542%, 100%)" offset="0.289062"/><stop stop-opacity="1" stop-color="rgb(69.662476%, 11.083984%, 100%)" offset="0.292969"/><stop stop-opacity="1" stop-color="rgb(69.473267%, 11.375427%, 100%)" offset="0.296875"/><stop stop-opacity="1" stop-color="rgb(69.282532%, 11.66687%, 100%)" offset="0.300781"/><stop stop-opacity="1" stop-color="rgb(69.091797%, 11.958313%, 100%)" offset="0.304688"/><stop stop-opacity="1" stop-color="rgb(68.901062%, 12.249756%, 100%)" offset="0.308594"/><stop stop-opacity="1" stop-color="rgb(68.711853%, 12.541199%, 100%)" offset="0.3125"/><stop stop-opacity="1" stop-color="rgb(68.521118%, 12.832642%, 100%)" offset="0.316406"/><stop stop-opacity="1" stop-color="rgb(68.330383%, 13.124084%, 100%)" offset="0.320312"/><stop stop-opacity="1" stop-color="rgb(68.139648%, 13.415527%, 100%)" offset="0.324219"/><stop stop-opacity="1" stop-color="rgb(67.950439%, 13.70697%, 100%)" offset="0.328125"/><stop stop-opacity="1" stop-color="rgb(67.759705%, 13.998413%, 100%)" offset="0.332031"/><stop stop-opacity="1" stop-color="rgb(67.56897%, 14.291382%, 100%)" offset="0.335937"/><stop stop-opacity="1" stop-color="rgb(67.378235%, 14.582825%, 100%)" offset="0.339844"/><stop stop-opacity="1" stop-color="rgb(67.189026%, 14.874268%, 100%)" offset="0.34375"/><stop stop-opacity="1" stop-color="rgb(66.998291%, 15.16571%, 100%)" offset="0.347656"/><stop stop-opacity="1" stop-color="rgb(66.807556%, 15.457153%, 100%)" offset="0.351562"/><stop stop-opacity="1" stop-color="rgb(66.616821%, 15.748596%, 100%)" offset="0.355469"/><stop stop-opacity="1" stop-color="rgb(66.427612%, 16.040039%, 100%)" offset="0.359375"/><stop stop-opacity="1" stop-color="rgb(66.236877%, 16.331482%, 100%)" offset="0.363281"/><stop stop-opacity="1" stop-color="rgb(66.047668%, 16.622925%, 100%)" offset="0.367187"/><stop stop-opacity="1" stop-color="rgb(65.856934%, 16.914368%, 100%)" offset="0.371094"/><stop stop-opacity="1" stop-color="rgb(65.666199%, 17.205811%, 100%)" offset="0.375"/><stop stop-opacity="1" stop-color="rgb(65.475464%, 17.497253%, 100%)" offset="0.378906"/><stop stop-opacity="1" stop-color="rgb(65.286255%, 17.788696%, 100%)" offset="0.382812"/><stop stop-opacity="1" stop-color="rgb(65.09552%, 18.080139%, 100%)" offset="0.386719"/><stop stop-opacity="1" stop-color="rgb(64.904785%, 18.371582%, 100%)" offset="0.390625"/><stop stop-opacity="1" stop-color="rgb(64.71405%, 18.663025%, 100%)" offset="0.394531"/><stop stop-opacity="1" stop-color="rgb(64.524841%, 18.954468%, 100%)" offset="0.398438"/><stop stop-opacity="1" stop-color="rgb(64.334106%, 19.245911%, 100%)" offset="0.402344"/><stop stop-opacity="1" stop-color="rgb(64.143372%, 19.537354%, 100%)" offset="0.40625"/><stop stop-opacity="1" stop-color="rgb(63.952637%, 19.828796%, 100%)" offset="0.410156"/><stop stop-opacity="1" stop-color="rgb(63.763428%, 20.121765%, 100%)" offset="0.414063"/><stop stop-opacity="1" stop-color="rgb(63.572693%, 20.413208%, 100%)" offset="0.417969"/><stop stop-opacity="1" stop-color="rgb(63.381958%, 20.704651%, 100%)" offset="0.421875"/><stop stop-opacity="1" stop-color="rgb(63.191223%, 20.996094%, 100%)" offset="0.425781"/><stop stop-opacity="1" stop-color="rgb(63.002014%, 21.287537%, 100%)" offset="0.429687"/><stop stop-opacity="1" stop-color="rgb(62.811279%, 21.578979%, 100%)" offset="0.433594"/><stop stop-opacity="1" stop-color="rgb(62.62207%, 21.870422%, 100%)" offset="0.4375"/><stop stop-opacity="1" stop-color="rgb(62.431335%, 22.161865%, 100%)" offset="0.441406"/><stop stop-opacity="1" stop-color="rgb(62.240601%, 22.453308%, 100%)" offset="0.445312"/><stop stop-opacity="1" stop-color="rgb(62.049866%, 22.744751%, 100%)" offset="0.449219"/><stop stop-opacity="1" stop-color="rgb(61.860657%, 23.036194%, 100%)" offset="0.453125"/><stop stop-opacity="1" stop-color="rgb(61.669922%, 23.327637%, 100%)" offset="0.457031"/><stop stop-opacity="1" stop-color="rgb(61.479187%, 23.61908%, 100%)" offset="0.460938"/><stop stop-opacity="1" stop-color="rgb(61.288452%, 23.910522%, 100%)" offset="0.464844"/><stop stop-opacity="1" stop-color="rgb(61.099243%, 24.201965%, 100%)" offset="0.46875"/><stop stop-opacity="1" stop-color="rgb(60.908508%, 24.493408%, 100%)" offset="0.472656"/><stop stop-opacity="1" stop-color="rgb(60.717773%, 24.784851%, 100%)" offset="0.476563"/><stop stop-opacity="1" stop-color="rgb(60.527039%, 25.076294%, 100%)" offset="0.480469"/><stop stop-opacity="1" stop-color="rgb(60.33783%, 25.369263%, 100%)" offset="0.484375"/><stop stop-opacity="1" stop-color="rgb(60.147095%, 25.660706%, 100%)" offset="0.488281"/><stop stop-opacity="1" stop-color="rgb(59.95636%, 25.952148%, 100%)" offset="0.492187"/><stop stop-opacity="1" stop-color="rgb(59.765625%, 26.243591%, 100%)" offset="0.496094"/><stop stop-opacity="1" stop-color="rgb(59.576416%, 26.535034%, 100%)" offset="0.5"/><stop stop-opacity="1" stop-color="rgb(59.385681%, 26.826477%, 100%)" offset="0.503906"/><stop stop-opacity="1" stop-color="rgb(59.196472%, 27.11792%, 100%)" offset="0.507812"/><stop stop-opacity="1" stop-color="rgb(59.005737%, 27.409363%, 100%)" offset="0.511719"/><stop stop-opacity="1" stop-color="rgb(58.815002%, 27.700806%, 100%)" offset="0.515625"/><stop stop-opacity="1" stop-color="rgb(58.624268%, 27.992249%, 100%)" offset="0.519531"/><stop stop-opacity="1" stop-color="rgb(58.435059%, 28.283691%, 100%)" offset="0.523438"/><stop stop-opacity="1" stop-color="rgb(58.244324%, 28.575134%, 100%)" offset="0.527344"/><stop stop-opacity="1" stop-color="rgb(58.053589%, 28.866577%, 100%)" offset="0.53125"/><stop stop-opacity="1" stop-color="rgb(57.862854%, 29.15802%, 100%)" offset="0.535156"/><stop stop-opacity="1" stop-color="rgb(57.673645%, 29.449463%, 100%)" offset="0.539062"/><stop stop-opacity="1" stop-color="rgb(57.48291%, 29.740906%, 100%)" offset="0.542969"/><stop stop-opacity="1" stop-color="rgb(57.292175%, 30.032349%, 100%)" offset="0.546875"/><stop stop-opacity="1" stop-color="rgb(57.10144%, 30.323792%, 100%)" offset="0.550781"/><stop stop-opacity="1" stop-color="rgb(56.912231%, 30.61676%, 100%)" offset="0.554688"/><stop stop-opacity="1" stop-color="rgb(56.721497%, 30.908203%, 100%)" offset="0.558594"/><stop stop-opacity="1" stop-color="rgb(56.530762%, 31.199646%, 100%)" offset="0.5625"/><stop stop-opacity="1" stop-color="rgb(56.340027%, 31.491089%, 100%)" offset="0.566406"/><stop stop-opacity="1" stop-color="rgb(56.150818%, 31.782532%, 100%)" offset="0.570313"/><stop stop-opacity="1" stop-color="rgb(55.960083%, 32.073975%, 100%)" offset="0.574219"/><stop stop-opacity="1" stop-color="rgb(55.770874%, 32.365417%, 100%)" offset="0.578125"/><stop stop-opacity="1" stop-color="rgb(55.580139%, 32.65686%, 100%)" offset="0.582031"/><stop stop-opacity="1" stop-color="rgb(55.389404%, 32.948303%, 100%)" offset="0.585938"/><stop stop-opacity="1" stop-color="rgb(55.198669%, 33.239746%, 100%)" offset="0.589844"/><stop stop-opacity="1" stop-color="rgb(55.00946%, 33.531189%, 100%)" offset="0.59375"/><stop stop-opacity="1" stop-color="rgb(54.351807%, 34.178162%, 100%)" offset="0.597656"/><stop stop-opacity="1" stop-color="rgb(53.695679%, 34.825134%, 100%)" offset="0.601562"/><stop stop-opacity="1" stop-color="rgb(52.850342%, 35.61554%, 100%)" offset="0.605469"/><stop stop-opacity="1" stop-color="rgb(52.006531%, 36.407471%, 100%)" offset="0.609375"/><stop stop-opacity="1" stop-color="rgb(51.161194%, 37.197876%, 100%)" offset="0.613281"/><stop stop-opacity="1" stop-color="rgb(50.317383%, 37.988281%, 100%)" offset="0.617188"/><stop stop-opacity="1" stop-color="rgb(49.472046%, 38.778687%, 100%)" offset="0.621094"/><stop stop-opacity="1" stop-color="rgb(48.628235%, 39.570618%, 100%)" offset="0.625"/><stop stop-opacity="1" stop-color="rgb(47.782898%, 40.361023%, 100%)" offset="0.628906"/><stop stop-opacity="1" stop-color="rgb(46.939087%, 41.152954%, 100%)" offset="0.632812"/><stop stop-opacity="1" stop-color="rgb(46.09375%, 41.943359%, 100%)" offset="0.636719"/><stop stop-opacity="1" stop-color="rgb(45.248413%, 42.733765%, 100%)" offset="0.640625"/><stop stop-opacity="1" stop-color="rgb(44.403076%, 43.52417%, 100%)" offset="0.644531"/><stop stop-opacity="1" stop-color="rgb(43.559265%, 44.316101%, 100%)" offset="0.648438"/><stop stop-opacity="1" stop-color="rgb(42.713928%, 45.106506%, 100%)" offset="0.652344"/><stop stop-opacity="1" stop-color="rgb(41.870117%, 45.898438%, 100%)" offset="0.65625"/><stop stop-opacity="1" stop-color="rgb(41.02478%, 46.688843%, 100%)" offset="0.660156"/><stop stop-opacity="1" stop-color="rgb(40.180969%, 47.479248%, 100%)" offset="0.664062"/><stop stop-opacity="1" stop-color="rgb(39.335632%, 48.269653%, 100%)" offset="0.667969"/><stop stop-opacity="1" stop-color="rgb(38.491821%, 49.061584%, 100%)" offset="0.671875"/><stop stop-opacity="1" stop-color="rgb(37.646484%, 49.85199%, 100%)" offset="0.675781"/><stop stop-opacity="1" stop-color="rgb(36.801147%, 50.642395%, 100%)" offset="0.679688"/><stop stop-opacity="1" stop-color="rgb(35.955811%, 51.4328%, 100%)" offset="0.683594"/><stop stop-opacity="1" stop-color="rgb(35.112%, 52.224731%, 100%)" offset="0.6875"/><stop stop-opacity="1" stop-color="rgb(34.266663%, 53.015137%, 100%)" offset="0.691406"/><stop stop-opacity="1" stop-color="rgb(33.422852%, 53.807068%, 100%)" offset="0.695312"/><stop stop-opacity="1" stop-color="rgb(32.577515%, 54.597473%, 100%)" offset="0.699219"/><stop stop-opacity="1" stop-color="rgb(31.733704%, 55.387878%, 100%)" offset="0.703125"/><stop stop-opacity="1" stop-color="rgb(30.888367%, 56.178284%, 100%)" offset="0.707031"/><stop stop-opacity="1" stop-color="rgb(30.04303%, 56.970215%, 100%)" offset="0.710938"/><stop stop-opacity="1" stop-color="rgb(29.197693%, 57.76062%, 100%)" offset="0.714844"/><stop stop-opacity="1" stop-color="rgb(28.353882%, 58.552551%, 100%)" offset="0.71875"/><stop stop-opacity="1" stop-color="rgb(27.508545%, 59.342957%, 100%)" offset="0.722656"/><stop stop-opacity="1" stop-color="rgb(26.664734%, 60.133362%, 100%)" offset="0.726562"/><stop stop-opacity="1" stop-color="rgb(25.819397%, 60.923767%, 100%)" offset="0.730469"/><stop stop-opacity="1" stop-color="rgb(24.975586%, 61.715698%, 100%)" offset="0.734375"/><stop stop-opacity="1" stop-color="rgb(24.130249%, 62.506104%, 100%)" offset="0.738281"/><stop stop-opacity="1" stop-color="rgb(23.286438%, 63.296509%, 100%)" offset="0.742187"/><stop stop-opacity="1" stop-color="rgb(22.441101%, 64.086914%, 100%)" offset="0.746094"/><stop stop-opacity="1" stop-color="rgb(21.595764%, 64.878845%, 100%)" offset="0.75"/><stop stop-opacity="1" stop-color="rgb(20.750427%, 65.66925%, 100%)" offset="0.753906"/><stop stop-opacity="1" stop-color="rgb(19.906616%, 66.461182%, 100%)" offset="0.757812"/><stop stop-opacity="1" stop-color="rgb(19.061279%, 67.251587%, 100%)" offset="0.761719"/><stop stop-opacity="1" stop-color="rgb(18.217468%, 68.041992%, 100%)" offset="0.765625"/><stop stop-opacity="1" stop-color="rgb(17.372131%, 68.832397%, 100%)" offset="0.769531"/><stop stop-opacity="1" stop-color="rgb(16.52832%, 69.624329%, 100%)" offset="0.773438"/><stop stop-opacity="1" stop-color="rgb(15.682983%, 70.414734%, 100%)" offset="0.777344"/><stop stop-opacity="1" stop-color="rgb(14.839172%, 71.206665%, 100%)" offset="0.78125"/><stop stop-opacity="1" stop-color="rgb(13.993835%, 71.99707%, 100%)" offset="0.785156"/><stop stop-opacity="1" stop-color="rgb(13.148499%, 72.787476%, 100%)" offset="0.789062"/><stop stop-opacity="1" stop-color="rgb(12.303162%, 73.577881%, 100%)" offset="0.792969"/><stop stop-opacity="1" stop-color="rgb(11.459351%, 74.369812%, 100%)" offset="0.796875"/><stop stop-opacity="1" stop-color="rgb(10.614014%, 75.160217%, 100%)" offset="0.800781"/><stop stop-opacity="1" stop-color="rgb(9.770203%, 75.952148%, 100%)" offset="0.804688"/><stop stop-opacity="1" stop-color="rgb(8.924866%, 76.742554%, 100%)" offset="0.808594"/><stop stop-opacity="1" stop-color="rgb(8.081055%, 77.532959%, 100%)" offset="0.8125"/><stop stop-opacity="1" stop-color="rgb(7.235718%, 78.323364%, 100%)" offset="0.816406"/><stop stop-opacity="1" stop-color="rgb(6.390381%, 79.115295%, 100%)" offset="0.820312"/><stop stop-opacity="1" stop-color="rgb(5.545044%, 79.905701%, 100%)" offset="0.824219"/><stop stop-opacity="1" stop-color="rgb(4.701233%, 80.696106%, 100%)" offset="0.828125"/><stop stop-opacity="1" stop-color="rgb(3.855896%, 81.486511%, 100%)" offset="0.832031"/><stop stop-opacity="1" stop-color="rgb(3.012085%, 82.278442%, 100%)" offset="0.835938"/><stop stop-opacity="1" stop-color="rgb(2.166748%, 83.068848%, 100%)" offset="0.839844"/><stop stop-opacity="1" stop-color="rgb(1.322937%, 83.860779%, 100%)" offset="0.84375"/><stop stop-opacity="1" stop-color="rgb(0.660706%, 84.480286%, 100%)" offset="0.847656"/><stop stop-opacity="1" stop-color="rgb(0%, 85.099792%, 100%)" offset="0.851562"/><stop stop-opacity="1" stop-color="rgb(0%, 85.099792%, 100%)" offset="0.859375"/><stop stop-opacity="1" stop-color="rgb(0%, 85.099792%, 100%)" offset="0.875"/><stop stop-opacity="1" stop-color="rgb(0%, 85.099792%, 100%)" offset="1"/></linearGradient><clipPath id="id6"><path d="M 89 89.59375 L 139 89.59375 L 139 140 L 89 140 Z M 89 89.59375 " clip-rule="nonzero"/></clipPath><clipPath id="id7"><path d="M 235 235 L 285 235 L 285 285.34375 L 235 285.34375 Z M 235 235 " clip-rule="nonzero"/></clipPath><clipPath id="id8"><path d="M 91 89.59375 L 286.925781 89.59375 L 286.925781 284 L 91 284 Z M 91 89.59375 " clip-rule="nonzero"/></clipPath></defs><g clip-path="url(#id1)"><g clip-path="url(#id2)"><g clip-path="url(#id3)"><g clip-path="url(#id4)"><path fill="url(#id5)" d="M 222.574219 511.503906 L 511.714844 152.585938 L 152.796875 -136.554688 L -136.34375 222.363281 Z M 222.574219 511.503906 " fill-rule="nonzero"/></g></g></g></g><g clip-path="url(#id6)"><path fill="#fafafa" d="M 93.597656 113.398438 L 112.957031 94.058594 C 113.671875 93.371094 114.449219 92.757812 115.285156 92.222656 C 116.121094 91.683594 117.003906 91.230469 117.925781 90.867188 C 118.851562 90.5 119.800781 90.226562 120.777344 90.046875 C 121.757812 89.863281 122.742188 89.777344 123.734375 89.789062 C 124.730469 89.796875 125.714844 89.902344 126.6875 90.105469 C 127.660156 90.304688 128.605469 90.597656 129.523438 90.984375 C 130.4375 91.367188 131.308594 91.839844 132.136719 92.390625 C 132.960938 92.945312 133.722656 93.574219 134.425781 94.277344 C 135.128906 94.980469 135.757812 95.742188 136.3125 96.566406 C 136.867188 97.390625 137.335938 98.261719 137.722656 99.175781 C 138.109375 100.09375 138.402344 101.039062 138.601562 102.011719 C 138.804688 102.984375 138.910156 103.964844 138.917969 104.957031 C 138.929688 105.953125 138.84375 106.9375 138.664062 107.914062 C 138.480469 108.890625 138.207031 109.839844 137.839844 110.761719 C 137.472656 111.6875 137.023438 112.566406 136.484375 113.402344 C 135.949219 114.238281 135.335938 115.011719 134.644531 115.730469 L 115.289062 135.070312 C 114.570312 135.761719 113.792969 136.371094 112.957031 136.910156 C 112.121094 137.445312 111.242188 137.898438 110.316406 138.265625 C 109.394531 138.628906 108.441406 138.902344 107.464844 139.085938 C 106.488281 139.265625 105.5 139.351562 104.507812 139.34375 C 103.515625 139.332031 102.53125 139.226562 101.554688 139.023438 C 100.582031 138.824219 99.636719 138.53125 98.722656 138.144531 C 97.804688 137.761719 96.933594 137.292969 96.109375 136.738281 C 95.285156 136.183594 94.519531 135.554688 93.816406 134.851562 C 93.113281 134.152344 92.484375 133.386719 91.929688 132.5625 C 91.375 131.738281 90.90625 130.867188 90.523438 129.953125 C 90.136719 129.035156 89.84375 128.09375 89.640625 127.121094 C 89.441406 126.148438 89.335938 125.164062 89.324219 124.171875 C 89.316406 123.179688 89.398438 122.191406 89.582031 121.214844 C 89.761719 120.238281 90.039062 119.289062 90.402344 118.367188 C 90.769531 117.441406 91.222656 116.5625 91.757812 115.726562 C 92.296875 114.894531 92.910156 114.117188 93.597656 113.398438 Z M 93.597656 113.398438 " fill-opacity="1" fill-rule="nonzero"/></g><path fill="#fafafa" d="M 95.003906 185.378906 L 185.921875 94.535156 C 186.636719 93.847656 187.414062 93.234375 188.25 92.699219 C 189.085938 92.160156 189.96875 91.710938 190.890625 91.34375 C 191.816406 90.976562 192.765625 90.703125 193.746094 90.523438 C 194.722656 90.339844 195.707031 90.253906 196.703125 90.265625 C 197.695312 90.277344 198.679688 90.382812 199.652344 90.582031 C 200.625 90.785156 201.570312 91.078125 202.488281 91.460938 C 203.402344 91.847656 204.273438 92.316406 205.101562 92.871094 C 205.925781 93.421875 206.6875 94.050781 207.390625 94.753906 C 208.09375 95.457031 208.722656 96.21875 209.277344 97.042969 C 209.832031 97.867188 210.300781 98.738281 210.6875 99.65625 C 211.074219 100.570312 211.367188 101.515625 211.566406 102.488281 C 211.769531 103.460938 211.875 104.441406 211.882812 105.4375 C 211.894531 106.429688 211.808594 107.414062 211.628906 108.390625 C 211.445312 109.367188 211.171875 110.316406 210.804688 111.242188 C 210.4375 112.164062 209.988281 113.042969 209.449219 113.878906 C 208.914062 114.714844 208.300781 115.492188 207.609375 116.207031 L 116.691406 207.050781 C 116.339844 207.417969 115.96875 207.765625 115.582031 208.09375 C 115.195312 208.425781 114.792969 208.734375 114.375 209.027344 C 113.957031 209.316406 113.527344 209.585938 113.082031 209.832031 C 112.636719 210.078125 112.179688 210.304688 111.714844 210.503906 C 111.246094 210.707031 110.769531 210.882812 110.285156 211.039062 C 109.800781 211.191406 109.308594 211.324219 108.8125 211.429688 C 108.3125 211.535156 107.8125 211.613281 107.304688 211.671875 C 106.800781 211.726562 106.292969 211.757812 105.78125 211.761719 C 105.273438 211.765625 104.765625 211.746094 104.257812 211.703125 C 103.753906 211.65625 103.25 211.585938 102.75 211.492188 C 102.25 211.394531 101.753906 211.273438 101.265625 211.128906 C 100.777344 210.984375 100.300781 210.816406 99.828125 210.625 C 99.355469 210.433594 98.898438 210.21875 98.445312 209.980469 C 97.996094 209.742188 97.558594 209.484375 97.136719 209.199219 C 96.710938 208.917969 96.304688 208.617188 95.910156 208.296875 C 95.515625 207.972656 95.140625 207.632812 94.78125 207.273438 C 94.417969 206.914062 94.078125 206.539062 93.757812 206.144531 C 93.433594 205.75 93.132812 205.339844 92.851562 204.917969 C 92.566406 204.496094 92.308594 204.058594 92.070312 203.609375 C 91.832031 203.160156 91.617188 202.699219 91.425781 202.226562 C 91.230469 201.757812 91.0625 201.277344 90.917969 200.789062 C 90.773438 200.304688 90.652344 199.808594 90.558594 199.308594 C 90.464844 198.8125 90.394531 198.308594 90.347656 197.800781 C 90.300781 197.292969 90.28125 196.789062 90.289062 196.277344 C 90.292969 195.769531 90.324219 195.261719 90.378906 194.757812 C 90.433594 194.253906 90.515625 193.75 90.621094 193.253906 C 90.726562 192.757812 90.855469 192.265625 91.011719 191.78125 C 91.164062 191.296875 91.34375 190.820312 91.546875 190.355469 C 91.746094 189.886719 91.972656 189.429688 92.21875 188.988281 C 92.464844 188.542969 92.734375 188.109375 93.027344 187.695312 C 93.316406 187.277344 93.625 186.875 93.957031 186.488281 C 94.285156 186.101562 94.636719 185.730469 95.003906 185.378906 Z M 95.003906 185.378906 " fill-opacity="1" fill-rule="nonzero"/><g clip-path="url(#id7)"><path fill="#fafafa" d="M 280.574219 261.539062 L 261.21875 280.882812 C 260.503906 281.589844 259.726562 282.222656 258.890625 282.777344 C 258.050781 283.332031 257.167969 283.800781 256.238281 284.183594 C 255.308594 284.566406 254.347656 284.855469 253.363281 285.050781 C 252.375 285.246094 251.378906 285.34375 250.371094 285.34375 C 249.367188 285.34375 248.371094 285.246094 247.382812 285.050781 C 246.398438 284.855469 245.4375 284.566406 244.507812 284.183594 C 243.578125 283.800781 242.695312 283.332031 241.855469 282.777344 C 241.019531 282.222656 240.242188 281.589844 239.527344 280.882812 C 238.816406 280.167969 238.179688 279.394531 237.621094 278.558594 C 237.0625 277.722656 236.589844 276.839844 236.203125 275.910156 C 235.820312 274.980469 235.527344 274.019531 235.332031 273.035156 C 235.136719 272.046875 235.039062 271.050781 235.039062 270.046875 C 235.039062 269.039062 235.136719 268.042969 235.332031 267.054688 C 235.527344 266.070312 235.820312 265.109375 236.203125 264.179688 C 236.589844 263.25 237.0625 262.367188 237.621094 261.53125 C 238.179688 260.695312 238.816406 259.921875 239.527344 259.207031 L 258.886719 239.867188 C 259.601562 239.179688 260.378906 238.566406 261.214844 238.03125 C 262.050781 237.492188 262.933594 237.042969 263.855469 236.675781 C 264.78125 236.308594 265.730469 236.035156 266.710938 235.855469 C 267.6875 235.671875 268.671875 235.585938 269.667969 235.597656 C 270.660156 235.605469 271.644531 235.714844 272.617188 235.914062 C 273.589844 236.117188 274.535156 236.410156 275.453125 236.792969 C 276.367188 237.179688 277.238281 237.648438 278.066406 238.203125 C 278.890625 238.753906 279.652344 239.382812 280.355469 240.085938 C 281.058594 240.789062 281.6875 241.550781 282.242188 242.375 C 282.796875 243.199219 283.265625 244.070312 283.652344 244.984375 C 284.039062 245.902344 284.332031 246.847656 284.53125 247.820312 C 284.734375 248.792969 284.839844 249.773438 284.847656 250.769531 C 284.859375 251.761719 284.773438 252.746094 284.59375 253.722656 C 284.410156 254.699219 284.136719 255.648438 283.769531 256.574219 C 283.402344 257.496094 282.953125 258.375 282.414062 259.210938 C 281.878906 260.046875 281.265625 260.824219 280.574219 261.539062 Z M 280.574219 261.539062 " fill-opacity="1" fill-rule="nonzero"/></g><path fill="#fafafa" d="M 281.027344 189.5625 L 190.105469 280.488281 C 189.390625 281.175781 188.613281 281.789062 187.777344 282.324219 C 186.941406 282.863281 186.0625 283.3125 185.136719 283.679688 C 184.210938 284.046875 183.261719 284.320312 182.285156 284.5 C 181.308594 284.683594 180.320312 284.769531 179.328125 284.757812 C 178.332031 284.746094 177.347656 284.640625 176.375 284.441406 C 175.402344 284.238281 174.457031 283.945312 173.539062 283.5625 C 172.625 283.175781 171.753906 282.707031 170.929688 282.152344 C 170.101562 281.601562 169.339844 280.972656 168.636719 280.269531 C 167.933594 279.566406 167.304688 278.804688 166.75 277.980469 C 166.195312 277.15625 165.726562 276.285156 165.339844 275.367188 C 164.957031 274.453125 164.664062 273.507812 164.460938 272.535156 C 164.257812 271.5625 164.152344 270.582031 164.144531 269.585938 C 164.132812 268.59375 164.21875 267.609375 164.402344 266.632812 C 164.582031 265.65625 164.855469 264.707031 165.222656 263.78125 C 165.589844 262.859375 166.039062 261.980469 166.578125 261.144531 C 167.117188 260.308594 167.730469 259.53125 168.417969 258.816406 L 259.335938 167.890625 C 260.050781 167.199219 260.828125 166.589844 261.664062 166.050781 C 262.503906 165.515625 263.382812 165.0625 264.304688 164.695312 C 265.230469 164.332031 266.179688 164.058594 267.160156 163.875 C 268.136719 163.695312 269.121094 163.609375 270.117188 163.617188 C 271.109375 163.628906 272.09375 163.734375 273.066406 163.9375 C 274.039062 164.136719 274.984375 164.429688 275.902344 164.816406 C 276.820312 165.199219 277.6875 165.667969 278.515625 166.222656 C 279.339844 166.777344 280.105469 167.40625 280.808594 168.109375 C 281.507812 168.808594 282.136719 169.574219 282.691406 170.398438 C 283.246094 171.222656 283.71875 172.09375 284.101562 173.007812 C 284.488281 173.925781 284.78125 174.867188 284.980469 175.839844 C 285.183594 176.8125 285.289062 177.796875 285.300781 178.789062 C 285.308594 179.78125 285.222656 180.769531 285.042969 181.746094 C 284.859375 182.722656 284.585938 183.671875 284.21875 184.59375 C 283.855469 185.519531 283.402344 186.398438 282.863281 187.234375 C 282.328125 188.066406 281.714844 188.84375 281.027344 189.5625 Z M 281.027344 189.5625 " fill-opacity="1" fill-rule="nonzero"/><g clip-path="url(#id8)"><path fill="#fafafa" d="M 285.800781 107.644531 L 285.800781 131.703125 C 285.804688 132.5 285.738281 133.289062 285.609375 134.074219 C 285.480469 134.859375 285.285156 135.628906 285.027344 136.378906 C 284.773438 137.132812 284.457031 137.859375 284.078125 138.558594 C 283.703125 139.261719 283.269531 139.925781 282.785156 140.554688 C 282.296875 141.183594 281.761719 141.769531 281.179688 142.3125 C 280.597656 142.851562 279.972656 143.34375 279.308594 143.78125 C 278.644531 144.21875 277.949219 144.601562 277.222656 144.925781 C 276.492188 145.25 275.746094 145.511719 274.976562 145.710938 C 274.203125 145.910156 273.421875 146.046875 272.628906 146.117188 C 271.835938 146.1875 271.042969 146.195312 270.25 146.136719 C 269.457031 146.078125 268.671875 145.953125 267.898438 145.761719 C 267.125 145.574219 266.375 145.324219 265.640625 145.011719 C 264.910156 144.699219 264.207031 144.328125 263.539062 143.898438 C 262.867188 143.46875 262.234375 142.988281 261.644531 142.457031 C 261.054688 141.925781 260.511719 141.347656 260.015625 140.726562 C 259.519531 140.101562 259.078125 139.445312 258.6875 138.75 L 117.929688 279.167969 C 117.210938 279.855469 116.433594 280.46875 115.597656 281.007812 C 114.761719 281.542969 113.882812 281.996094 112.957031 282.359375 C 112.035156 282.726562 111.082031 283 110.105469 283.179688 C 109.128906 283.363281 108.144531 283.449219 107.148438 283.4375 C 106.15625 283.429688 105.171875 283.324219 104.199219 283.121094 C 103.222656 282.921875 102.277344 282.628906 101.363281 282.242188 C 100.445312 281.859375 99.574219 281.386719 98.75 280.835938 C 97.925781 280.28125 97.160156 279.652344 96.457031 278.949219 C 95.753906 278.246094 95.125 277.484375 94.570312 276.660156 C 94.019531 275.835938 93.546875 274.964844 93.164062 274.050781 C 92.777344 273.132812 92.484375 272.1875 92.28125 271.214844 C 92.082031 270.242188 91.976562 269.261719 91.964844 268.269531 C 91.957031 267.273438 92.042969 266.289062 92.222656 265.3125 C 92.402344 264.335938 92.679688 263.386719 93.042969 262.464844 C 93.410156 261.539062 93.863281 260.660156 94.398438 259.824219 C 94.9375 258.988281 95.550781 258.214844 96.238281 257.496094 L 236.269531 117.667969 C 235.5 117.347656 234.761719 116.96875 234.058594 116.523438 C 233.355469 116.078125 232.691406 115.578125 232.074219 115.015625 C 231.457031 114.457031 230.894531 113.851562 230.382812 113.195312 C 229.867188 112.539062 229.417969 111.84375 229.023438 111.109375 C 228.632812 110.375 228.308594 109.613281 228.046875 108.820312 C 227.785156 108.03125 227.59375 107.222656 227.476562 106.398438 C 227.355469 105.574219 227.304688 104.75 227.328125 103.917969 C 227.351562 103.085938 227.441406 102.261719 227.609375 101.445312 C 227.773438 100.628906 228.007812 99.832031 228.308594 99.058594 C 228.609375 98.28125 228.976562 97.539062 229.410156 96.824219 C 229.839844 96.113281 230.328125 95.441406 230.875 94.816406 C 231.421875 94.1875 232.019531 93.609375 232.664062 93.085938 C 233.3125 92.558594 234 92.09375 234.726562 91.6875 C 235.453125 91.28125 236.207031 90.941406 236.996094 90.664062 C 237.78125 90.386719 238.585938 90.183594 239.40625 90.042969 C 240.226562 89.90625 241.054688 89.839844 241.886719 89.847656 L 268.578125 89.847656 C 269.175781 89.761719 269.777344 89.707031 270.378906 89.691406 C 270.980469 89.675781 271.582031 89.695312 272.183594 89.75 C 272.785156 89.804688 273.378906 89.894531 273.96875 90.019531 C 274.558594 90.148438 275.140625 90.304688 275.710938 90.5 C 276.28125 90.695312 276.839844 90.921875 277.382812 91.183594 C 277.925781 91.445312 278.453125 91.734375 278.960938 92.058594 C 279.472656 92.378906 279.960938 92.734375 280.425781 93.113281 C 280.894531 93.492188 281.339844 93.902344 281.757812 94.335938 C 282.175781 94.765625 282.570312 95.222656 282.933594 95.703125 C 283.300781 96.183594 283.632812 96.683594 283.941406 97.203125 C 284.246094 97.722656 284.519531 98.257812 284.761719 98.808594 C 285.003906 99.359375 285.214844 99.925781 285.386719 100.5 C 285.5625 101.078125 285.703125 101.664062 285.808594 102.257812 C 285.914062 102.851562 285.984375 103.449219 286.019531 104.050781 C 286.054688 104.652344 286.054688 105.253906 286.019531 105.851562 C 285.980469 106.453125 285.910156 107.050781 285.800781 107.644531 Z M 285.800781 107.644531 " fill-opacity="1" fill-rule="nonzero"/></g></svg>